<svg width="173" height="36" viewBox="0 0 173 36" fill="none" xmlns="http://www.w3.org/2000/svg">
<g filter="url(#filter0_d_204_40)">
<path d="M36.032 14.984C36.416 14.232 36.96 13.648 37.664 13.232C38.384 12.816 39.256 12.608 40.28 12.608V14.864H39.704C37.256 14.864 36.032 16.192 36.032 18.848V26H33.848V12.848H36.032V14.984ZM41.9851 19.376C41.9851 18.032 42.2571 16.856 42.8011 15.848C43.3451 14.824 44.0891 14.032 45.0331 13.472C45.9931 12.912 47.0571 12.632 48.2251 12.632C49.3771 12.632 50.3771 12.88 51.2251 13.376C52.0731 13.872 52.7051 14.496 53.1211 15.248V12.848H55.3291V26H53.1211V23.552C52.6891 24.32 52.0411 24.96 51.1771 25.472C50.3291 25.968 49.3371 26.216 48.2011 26.216C47.0331 26.216 45.9771 25.928 45.0331 25.352C44.0891 24.776 43.3451 23.968 42.8011 22.928C42.2571 21.888 41.9851 20.704 41.9851 19.376ZM53.1211 19.4C53.1211 18.408 52.9211 17.544 52.5211 16.808C52.1211 16.072 51.5771 15.512 50.8891 15.128C50.2171 14.728 49.4731 14.528 48.6571 14.528C47.8411 14.528 47.0971 14.72 46.4251 15.104C45.7531 15.488 45.2171 16.048 44.8171 16.784C44.4171 17.52 44.2171 18.384 44.2171 19.376C44.2171 20.384 44.4171 21.264 44.8171 22.016C45.2171 22.752 45.7531 23.32 46.4251 23.72C47.0971 24.104 47.8411 24.296 48.6571 24.296C49.4731 24.296 50.2171 24.104 50.8891 23.72C51.5771 23.32 52.1211 22.752 52.5211 22.016C52.9211 21.264 53.1211 20.392 53.1211 19.4ZM63.9159 23.984L67.9959 12.848H70.3239L65.1639 26H62.6199L57.4599 12.848H59.8119L63.9159 23.984ZM84.473 18.92C84.473 19.336 84.449 19.776 84.401 20.24H73.889C73.969 21.536 74.409 22.552 75.209 23.288C76.025 24.008 77.009 24.368 78.161 24.368C79.105 24.368 79.889 24.152 80.513 23.72C81.153 23.272 81.601 22.68 81.857 21.944H84.209C83.857 23.208 83.153 24.24 82.097 25.04C81.041 25.824 79.729 26.216 78.161 26.216C76.913 26.216 75.793 25.936 74.801 25.376C73.825 24.816 73.057 24.024 72.497 23C71.937 21.96 71.657 20.76 71.657 19.4C71.657 18.04 71.929 16.848 72.473 15.824C73.017 14.8 73.777 14.016 74.753 13.472C75.745 12.912 76.881 12.632 78.161 12.632C79.409 12.632 80.513 12.904 81.473 13.448C82.433 13.992 83.169 14.744 83.681 15.704C84.209 16.648 84.473 17.72 84.473 18.92ZM82.217 18.464C82.217 17.632 82.033 16.92 81.665 16.328C81.297 15.72 80.793 15.264 80.153 14.96C79.529 14.64 78.833 14.48 78.065 14.48C76.961 14.48 76.017 14.832 75.233 15.536C74.465 16.24 74.025 17.216 73.913 18.464H82.217ZM89.5398 8.24V26H87.3558V8.24H89.5398Z" fill="#242424"/>
<path d="M105.565 15.464H103.237V26H99.8285V15.464H98.3165V12.704H99.8285V12.032C99.8285 10.4 100.293 9.2 101.221 8.432C102.149 7.664 103.549 7.304 105.421 7.352V10.184C104.605 10.168 104.037 10.304 103.717 10.592C103.397 10.88 103.237 11.4 103.237 12.152V12.704H105.565V15.464ZM109.446 11.12C108.854 11.12 108.358 10.936 107.958 10.568C107.574 10.184 107.382 9.712 107.382 9.152C107.382 8.592 107.574 8.128 107.958 7.76C108.358 7.376 108.854 7.184 109.446 7.184C110.038 7.184 110.526 7.376 110.91 7.76C111.31 8.128 111.51 8.592 111.51 9.152C111.51 9.712 111.31 10.184 110.91 10.568C110.526 10.936 110.038 11.12 109.446 11.12ZM111.102 12.704V26H107.742V12.704H111.102ZM121.79 12.512C123.374 12.512 124.654 13.016 125.63 14.024C126.606 15.016 127.094 16.408 127.094 18.2V26H123.734V18.656C123.734 17.6 123.47 16.792 122.942 16.232C122.414 15.656 121.694 15.368 120.782 15.368C119.854 15.368 119.118 15.656 118.574 16.232C118.046 16.792 117.782 17.6 117.782 18.656V26H114.422V12.704H117.782V14.36C118.23 13.784 118.798 13.336 119.486 13.016C120.19 12.68 120.958 12.512 121.79 12.512ZM129.425 19.304C129.425 17.96 129.689 16.768 130.217 15.728C130.761 14.688 131.497 13.888 132.425 13.328C133.353 12.768 134.385 12.488 135.521 12.488C136.385 12.488 137.209 12.68 137.993 13.064C138.777 13.432 139.401 13.928 139.865 14.552V8.24H143.273V26H139.865V24.032C139.449 24.688 138.865 25.216 138.113 25.616C137.361 26.016 136.489 26.216 135.497 26.216C134.377 26.216 133.353 25.928 132.425 25.352C131.497 24.776 130.761 23.968 130.217 22.928C129.689 21.872 129.425 20.664 129.425 19.304ZM139.889 19.352C139.889 18.536 139.729 17.84 139.409 17.264C139.089 16.672 138.657 16.224 138.113 15.92C137.569 15.6 136.985 15.44 136.361 15.44C135.737 15.44 135.161 15.592 134.633 15.896C134.105 16.2 133.673 16.648 133.337 17.24C133.017 17.816 132.857 18.504 132.857 19.304C132.857 20.104 133.017 20.808 133.337 21.416C133.673 22.008 134.105 22.464 134.633 22.784C135.177 23.104 135.753 23.264 136.361 23.264C136.985 23.264 137.569 23.112 138.113 22.808C138.657 22.488 139.089 22.04 139.409 21.464C139.729 20.872 139.889 20.168 139.889 19.352ZM158.914 19.064C158.914 19.544 158.882 19.976 158.818 20.36H149.098C149.178 21.32 149.514 22.072 150.106 22.616C150.698 23.16 151.426 23.432 152.29 23.432C153.538 23.432 154.426 22.896 154.954 21.824H158.578C158.194 23.104 157.458 24.16 156.37 24.992C155.282 25.808 153.946 26.216 152.362 26.216C151.082 26.216 149.93 25.936 148.906 25.376C147.898 24.8 147.106 23.992 146.53 22.952C145.97 21.912 145.69 20.712 145.69 19.352C145.69 17.976 145.97 16.768 146.53 15.728C147.09 14.688 147.874 13.888 148.882 13.328C149.89 12.768 151.05 12.488 152.362 12.488C153.626 12.488 154.754 12.76 155.746 13.304C156.754 13.848 157.53 14.624 158.074 15.632C158.634 16.624 158.914 17.768 158.914 19.064ZM155.434 18.104C155.418 17.24 155.106 16.552 154.498 16.04C153.89 15.512 153.146 15.248 152.266 15.248C151.434 15.248 150.73 15.504 150.154 16.016C149.594 16.512 149.25 17.208 149.122 18.104H155.434ZM164.727 14.768C165.159 14.064 165.719 13.512 166.407 13.112C167.111 12.712 167.911 12.512 168.807 12.512V16.04H167.919C166.863 16.04 166.063 16.288 165.519 16.784C164.991 17.28 164.727 18.144 164.727 19.376V26H161.367V12.704H164.727V14.768Z" fill="black"/>
</g>
<g filter="url(#filter1_d_204_40)">
<path d="M27.8994 8.24127L24.0209 24.9936C23.7296 26.1754 23.0226 26.4578 22.0361 25.8805L16.6762 21.7752L14.0076 24.2487C13.7119 24.5337 13.4651 24.7715 12.9055 24.7611L13.3991 19.2345L23.6389 10.3213C24.0842 9.93942 23.5547 9.71259 22.9625 10.0925L10.3666 17.7013L5.0378 15.9238C3.87887 15.5383 3.87265 14.736 5.31293 14.203L26.4276 6.51505C27.405 6.16926 28.2435 6.76407 27.8994 8.24127Z" fill="#14B8A6"/>
</g>
<defs>
<filter id="filter0_d_204_40" x="29.8477" y="7.18408" width="142.959" height="27.0317" filterUnits="userSpaceOnUse" color-interpolation-filters="sRGB">
<feFlood flood-opacity="0" result="BackgroundImageFix"/>
<feColorMatrix in="SourceAlpha" type="matrix" values="0 0 0 0 0 0 0 0 0 0 0 0 0 0 0 0 0 0 127 0" result="hardAlpha"/>
<feOffset dy="4"/>
<feGaussianBlur stdDeviation="2"/>
<feComposite in2="hardAlpha" operator="out"/>
<feColorMatrix type="matrix" values="0 0 0 0 0 0 0 0 0 0 0 0 0 0 0 0 0 0 0.25 0"/>
<feBlend mode="normal" in2="BackgroundImageFix" result="effect1_dropShadow_204_40"/>
<feBlend mode="normal" in="SourceGraphic" in2="effect1_dropShadow_204_40" result="shape"/>
</filter>
<filter id="filter1_d_204_40" x="0.198242" y="6.41943" width="31.7803" height="27.7505" filterUnits="userSpaceOnUse" color-interpolation-filters="sRGB">
<feFlood flood-opacity="0" result="BackgroundImageFix"/>
<feColorMatrix in="SourceAlpha" type="matrix" values="0 0 0 0 0 0 0 0 0 0 0 0 0 0 0 0 0 0 127 0" result="hardAlpha"/>
<feOffset dy="4"/>
<feGaussianBlur stdDeviation="2"/>
<feComposite in2="hardAlpha" operator="out"/>
<feColorMatrix type="matrix" values="0 0 0 0 0 0 0 0 0 0 0 0 0 0 0 0 0 0 0.25 0"/>
<feBlend mode="normal" in2="BackgroundImageFix" result="effect1_dropShadow_204_40"/>
<feBlend mode="normal" in="SourceGraphic" in2="effect1_dropShadow_204_40" result="shape"/>
</filter>
</defs>
</svg>
