<svg width="98" height="18" viewBox="0 0 98 18" fill="none" xmlns="http://www.w3.org/2000/svg">
<path d="M9.06445 14.4229C9.05599 14.4398 9.05176 14.4609 9.05176 14.4863C9.05176 14.5117 9.04753 14.5329 9.03906 14.5498C9.03906 14.7021 9.07715 14.863 9.15332 15.0322C9.22949 15.193 9.35221 15.2734 9.52148 15.2734C9.58919 15.2734 9.63997 15.265 9.67383 15.248C10.1562 15.1042 10.6429 14.8757 11.1338 14.5625C11.6331 14.2493 12.1113 13.9066 12.5684 13.5342C13.0254 13.1618 13.4443 12.7809 13.8252 12.3916C14.2145 12.0023 14.5361 11.6553 14.79 11.3506C14.9085 11.2067 15.0397 11.1348 15.1836 11.1348C15.3105 11.1348 15.4206 11.194 15.5137 11.3125C15.6152 11.431 15.666 11.5918 15.666 11.7949C15.666 11.9557 15.6195 12.1462 15.5264 12.3662C15.4417 12.5863 15.2979 12.8232 15.0947 13.0771C14.5954 13.6273 14.0833 14.1562 13.5586 14.6641C13.0339 15.1719 12.5049 15.6247 11.9717 16.0225C11.4385 16.4118 10.9053 16.7249 10.3721 16.9619C9.84733 17.1989 9.33105 17.3174 8.82324 17.3174C8.2054 17.3174 7.71875 17.1439 7.36328 16.7969C7.00781 16.4414 6.83008 15.9124 6.83008 15.21C6.83008 15.1676 6.83008 15.1253 6.83008 15.083C6.83008 15.0322 6.83431 14.9857 6.84277 14.9434C6.64811 15.2988 6.39844 15.6247 6.09375 15.9209C5.78906 16.2087 5.45475 16.4583 5.09082 16.6699C4.72689 16.873 4.35026 17.0296 3.96094 17.1396C3.57161 17.2581 3.19499 17.3174 2.83105 17.3174C2.5179 17.3174 2.23014 17.2751 1.96777 17.1904C1.7054 17.1058 1.47689 16.9704 1.28223 16.7842C1.09603 16.598 0.947917 16.361 0.837891 16.0732C0.736328 15.7855 0.685547 15.4385 0.685547 15.0322C0.685547 14.3213 0.795573 13.6484 1.01562 13.0137C1.23568 12.3704 1.52767 11.7822 1.8916 11.249C2.25553 10.7074 2.67025 10.2249 3.13574 9.80176C3.6097 9.37012 4.09635 9.00618 4.5957 8.70996C5.10352 8.40527 5.6071 8.17253 6.10645 8.01172C6.60579 7.85091 7.06283 7.77051 7.47754 7.77051C7.95996 7.77051 8.37467 7.85091 8.72168 8.01172C8.89095 8.09635 9.04753 8.21061 9.19141 8.35449C9.22526 8.27832 9.25911 8.20638 9.29297 8.13867C9.3776 7.93555 9.45378 7.76204 9.52148 7.61816C9.58919 7.46582 9.63574 7.35579 9.66113 7.28809C9.68652 7.21191 9.75846 7.03418 9.87695 6.75488C9.99544 6.47559 10.1309 6.14974 10.2832 5.77734C10.444 5.39648 10.6133 4.99023 10.791 4.55859C10.9772 4.12695 11.1465 3.7207 11.2988 3.33984C11.4512 2.95898 11.5824 2.63314 11.6924 2.3623C11.8024 2.08301 11.8701 1.90527 11.8955 1.8291C11.9548 1.61751 12.0352 1.41439 12.1367 1.21973C12.2383 1.0166 12.3568 0.843099 12.4922 0.699219C12.6361 0.546875 12.8011 0.428385 12.9873 0.34375C13.1735 0.250651 13.3851 0.204102 13.6221 0.204102C13.9437 0.204102 14.2103 0.276042 14.4219 0.419922C14.6335 0.555339 14.7393 0.82194 14.7393 1.21973C14.7393 1.38053 14.7181 1.54557 14.6758 1.71484C14.6335 1.88411 14.5827 2.04915 14.5234 2.20996C14.4727 2.37077 14.4134 2.53158 14.3457 2.69238C14.2865 2.84473 14.2314 2.98861 14.1807 3.12402C13.7575 3.97038 13.3132 4.8929 12.8477 5.8916C12.3822 6.88184 11.9209 7.88053 11.4639 8.8877C11.0068 9.89486 10.571 10.8766 10.1562 11.833C9.74154 12.7894 9.3776 13.6527 9.06445 14.4229ZM8.68359 9.45898C8.17578 9.47591 7.64258 9.58594 7.08398 9.78906C6.44076 10.0091 5.85254 10.3392 5.31934 10.7793C4.78613 11.2109 4.33333 11.7441 3.96094 12.3789C3.59701 13.0137 3.38965 13.7415 3.33887 14.5625C3.33887 14.901 3.48275 15.0703 3.77051 15.0703C4.12598 15.0703 4.46452 14.9984 4.78613 14.8545C5.10775 14.7021 5.41243 14.5033 5.7002 14.2578C5.99642 14.0039 6.27148 13.7161 6.52539 13.3945C6.7793 13.0729 7.01204 12.7386 7.22363 12.3916C7.44368 12.0446 7.63835 11.7018 7.80762 11.3633C7.98535 11.0163 8.1377 10.6947 8.26465 10.3984C8.30697 10.3053 8.36621 10.1742 8.44238 10.0049C8.51009 9.84408 8.59049 9.66211 8.68359 9.45898ZM18.8652 9.50977C18.8229 9.5013 18.7848 9.49707 18.751 9.49707C18.7171 9.49707 18.679 9.49707 18.6367 9.49707C18.3151 9.49707 18.0146 9.56055 17.7354 9.6875C17.4561 9.81445 17.1979 9.98372 16.9609 10.1953C16.7324 10.3984 16.5251 10.6312 16.3389 10.8936C16.1611 11.1559 16.0003 11.4183 15.8564 11.6807C15.7126 11.9346 15.5898 12.18 15.4883 12.417C15.3952 12.654 15.3232 12.8529 15.2725 13.0137C15.5687 12.8613 15.8734 12.6878 16.1865 12.4932C16.5081 12.2985 16.8086 12.1123 17.0879 11.9346C17.3672 11.7568 17.6084 11.596 17.8115 11.4521C18.0231 11.3083 18.1712 11.2109 18.2559 11.1602C18.6367 10.9232 18.8991 10.7031 19.043 10.5C19.1868 10.2884 19.2588 10.1064 19.2588 9.9541C19.2588 9.82715 19.2165 9.72559 19.1318 9.64941C19.0557 9.57324 18.9668 9.52669 18.8652 9.50977ZM19.3223 7.75781C20.0247 7.75781 20.5495 7.92708 20.8965 8.26562C21.2435 8.60417 21.417 9.07389 21.417 9.6748C21.417 10.0303 21.3239 10.4027 21.1377 10.792C20.9515 11.1813 20.6299 11.5791 20.1729 11.9854C19.7158 12.3831 19.1022 12.7936 18.332 13.2168C17.5703 13.6315 16.6139 14.0505 15.4629 14.4736C15.5052 14.7191 15.6364 14.9137 15.8564 15.0576C16.0765 15.193 16.3685 15.2607 16.7324 15.2607C17.1217 15.2607 17.5365 15.2057 17.9766 15.0957C18.4251 14.9772 18.8652 14.8291 19.2969 14.6514C19.737 14.4736 20.1644 14.2832 20.5791 14.0801C20.9938 13.8685 21.3662 13.6696 21.6963 13.4834C22.0348 13.2972 22.3141 13.1364 22.5342 13.001C22.7627 12.8656 22.915 12.7809 22.9912 12.7471C23.0674 12.6963 23.1351 12.6667 23.1943 12.6582C23.262 12.6497 23.3213 12.6455 23.3721 12.6455C23.4736 12.6455 23.5583 12.6709 23.626 12.7217C23.6937 12.764 23.7487 12.819 23.791 12.8867C23.8418 12.946 23.8757 13.0137 23.8926 13.0898C23.9095 13.1576 23.918 13.2168 23.918 13.2676C23.918 13.3438 23.9095 13.4368 23.8926 13.5469C23.8757 13.6484 23.8122 13.7669 23.7021 13.9023C23.6598 13.9447 23.516 14.0589 23.2705 14.2451C23.0335 14.4313 22.7246 14.6514 22.3438 14.9053C21.9629 15.1592 21.5186 15.43 21.0107 15.7178C20.5114 15.9971 19.9782 16.2552 19.4111 16.4922C18.8525 16.7292 18.2686 16.9238 17.6592 17.0762C17.0498 17.237 16.4489 17.3174 15.8564 17.3174C15.3486 17.3174 14.8958 17.2201 14.498 17.0254C14.1087 16.8307 13.7744 16.5684 13.4951 16.2383C13.2243 15.9082 13.0169 15.5273 12.873 15.0957C12.7292 14.6641 12.6572 14.2113 12.6572 13.7373C12.6572 13.3734 12.7292 12.9756 12.873 12.5439C13.0169 12.1038 13.2243 11.6637 13.4951 11.2236C13.766 10.7835 14.096 10.3561 14.4854 9.94141C14.8831 9.51823 15.3275 9.14583 15.8184 8.82422C16.3092 8.5026 16.8467 8.24447 17.4307 8.0498C18.0231 7.85514 18.6536 7.75781 19.3223 7.75781ZM26.2031 9.85254C26.7194 10.1234 27.1807 10.4323 27.5869 10.7793C27.9932 11.1263 28.3359 11.4945 28.6152 11.8838C28.903 12.2646 29.1188 12.654 29.2627 13.0518C29.415 13.4495 29.4912 13.8389 29.4912 14.2197C29.4912 14.7021 29.3516 15.138 29.0723 15.5273C28.8014 15.9082 28.4417 16.234 27.9932 16.5049C27.5531 16.7673 27.0452 16.9661 26.4697 17.1016C25.9027 17.2454 25.3271 17.3174 24.7432 17.3174C24.3031 17.3174 23.8757 17.2666 23.4609 17.165C23.0462 17.0719 22.6654 16.9238 22.3184 16.7207C21.9798 16.5176 21.6878 16.2594 21.4424 15.9463C21.1969 15.6247 21.0234 15.2438 20.9219 14.8037C20.9049 14.736 20.8965 14.681 20.8965 14.6387C20.8965 14.4102 20.9769 14.2155 21.1377 14.0547C21.2985 13.8854 21.4762 13.8008 21.6709 13.8008C21.764 13.8008 21.8656 13.8177 21.9756 13.8516C22.0941 13.8854 22.1829 13.9616 22.2422 14.0801C22.3522 14.2832 22.5046 14.4652 22.6992 14.626C22.9023 14.7868 23.1266 14.9264 23.3721 15.0449C23.6175 15.1549 23.8757 15.2438 24.1465 15.3115C24.4258 15.3708 24.6966 15.4004 24.959 15.4004C25.2298 15.4004 25.488 15.375 25.7334 15.3242C25.9873 15.2734 26.2074 15.193 26.3936 15.083C26.5882 14.973 26.7406 14.8333 26.8506 14.6641C26.9606 14.4948 27.0156 14.2874 27.0156 14.042C27.0156 13.6104 26.9183 13.2126 26.7236 12.8486C26.529 12.4847 26.2751 12.1504 25.9619 11.8457C25.6572 11.5326 25.306 11.2448 24.9082 10.9824C24.5189 10.7116 24.1296 10.4535 23.7402 10.208C23.6979 10.1826 23.6344 10.1107 23.5498 9.99219C23.4652 9.86523 23.4229 9.73828 23.4229 9.61133C23.4229 9.50977 23.4482 9.42936 23.499 9.37012C23.6344 9.19238 23.791 9.01042 23.9688 8.82422C24.1465 8.63802 24.3369 8.46875 24.54 8.31641C24.7432 8.1556 24.9632 8.02865 25.2002 7.93555C25.4372 7.83398 25.6826 7.7832 25.9365 7.7832C26.1227 7.7832 26.2962 7.80859 26.457 7.85938C26.6178 7.91016 26.7533 7.97786 26.8633 8.0625C26.9733 8.13867 27.0579 8.22754 27.1172 8.3291C27.1849 8.4222 27.2188 8.51107 27.2188 8.5957C27.2188 8.71419 27.1891 8.82845 27.1299 8.93848C27.0706 9.0485 26.9902 9.1543 26.8887 9.25586C26.7956 9.35742 26.6855 9.45898 26.5586 9.56055C26.4401 9.66211 26.3216 9.75944 26.2031 9.85254ZM37.4893 8.93848C37.4893 9.20085 37.4596 9.49284 37.4004 9.81445C37.3411 10.1276 37.2438 10.4238 37.1084 10.7031C36.973 10.9824 36.7995 11.2152 36.5879 11.4014C36.3763 11.5876 36.1139 11.6807 35.8008 11.6807C35.6315 11.6807 35.5215 11.6553 35.4707 11.6045C35.4284 11.5537 35.4072 11.4648 35.4072 11.3379C35.4072 11.2617 35.4072 11.1517 35.4072 11.0078C35.4157 10.8555 35.4199 10.7116 35.4199 10.5762C35.4199 10.4238 35.3988 10.2969 35.3564 10.1953C35.3141 10.0853 35.2083 10.0303 35.0391 10.0303C34.8444 10.0303 34.6243 10.1064 34.3789 10.2588C34.1419 10.4027 33.9007 10.5931 33.6553 10.8301C33.4183 11.0671 33.1855 11.3379 32.957 11.6426C32.7285 11.9388 32.5212 12.2435 32.335 12.5566C32.1572 12.8613 32.0133 13.1576 31.9033 13.4453C31.8018 13.7331 31.751 13.9785 31.751 14.1816C31.751 14.4779 31.8525 14.7106 32.0557 14.8799C32.2673 15.0492 32.5508 15.1338 32.9062 15.1338C33.2871 15.1338 33.6934 15.0703 34.125 14.9434C34.5566 14.8164 34.984 14.6556 35.4072 14.4609C35.8389 14.2663 36.2536 14.0547 36.6514 13.8262C37.0492 13.5977 37.4089 13.3818 37.7305 13.1787C38.0605 12.9671 38.3356 12.7894 38.5557 12.6455C38.7757 12.4932 38.9196 12.4001 38.9873 12.3662C39.1227 12.2985 39.2497 12.2646 39.3682 12.2646C39.4697 12.2646 39.5544 12.29 39.6221 12.3408C39.6982 12.3831 39.7575 12.4382 39.7998 12.5059C39.8421 12.5651 39.8717 12.6328 39.8887 12.709C39.9056 12.7767 39.9141 12.8359 39.9141 12.8867C39.9141 12.9629 39.9056 13.056 39.8887 13.166C39.8717 13.2676 39.8083 13.3861 39.6982 13.5215C39.6559 13.5723 39.5163 13.7035 39.2793 13.915C39.0508 14.1182 38.7503 14.3594 38.3779 14.6387C38.014 14.918 37.5908 15.2184 37.1084 15.54C36.6344 15.8532 36.1224 16.141 35.5723 16.4033C35.0306 16.6657 34.4678 16.8815 33.8838 17.0508C33.2998 17.2285 32.7243 17.3174 32.1572 17.3174C31.7256 17.3174 31.3405 17.2497 31.002 17.1143C30.6719 16.9788 30.3926 16.7969 30.1641 16.5684C29.9355 16.3314 29.762 16.0563 29.6436 15.7432C29.5251 15.43 29.4658 15.0999 29.4658 14.7529C29.4658 14.3721 29.5547 13.9362 29.7324 13.4453C29.9102 12.946 30.1556 12.4382 30.4688 11.9219C30.7819 11.4056 31.1501 10.8978 31.5732 10.3984C31.9964 9.89909 32.4535 9.45475 32.9443 9.06543C33.4437 8.67611 33.96 8.36296 34.4932 8.12598C35.0348 7.889 35.5807 7.77051 36.1309 7.77051C36.3171 7.77051 36.4906 7.79167 36.6514 7.83398C36.8206 7.8763 36.9645 7.94401 37.083 8.03711C37.21 8.12174 37.3073 8.24023 37.375 8.39258C37.4512 8.54492 37.4893 8.72689 37.4893 8.93848ZM52.0508 13.9658C51.6784 14.389 51.2425 14.8037 50.7432 15.21C50.2523 15.6077 49.7445 15.9632 49.2197 16.2764C48.695 16.5895 48.1787 16.8392 47.6709 17.0254C47.1631 17.2201 46.7061 17.3174 46.2998 17.3174C45.8936 17.3174 45.5635 17.2031 45.3096 16.9746C45.0557 16.7461 44.9287 16.3568 44.9287 15.8066C44.9287 15.4173 44.9964 14.9645 45.1318 14.4482C44.9118 14.7783 44.6367 15.1126 44.3066 15.4512C43.9766 15.7897 43.5999 16.0986 43.1768 16.3779C42.7536 16.6572 42.2796 16.8815 41.7549 17.0508C41.2301 17.2285 40.6589 17.3174 40.041 17.3174C39.7617 17.3174 39.4909 17.2878 39.2285 17.2285C38.9746 17.1693 38.7503 17.0677 38.5557 16.9238C38.361 16.7799 38.2044 16.5895 38.0859 16.3525C37.9674 16.1071 37.9082 15.8024 37.9082 15.4385C37.9082 15.43 37.9251 15.3031 37.959 15.0576C37.9928 14.8037 38.0986 14.4102 38.2764 13.877C38.4626 13.3353 38.7461 12.637 39.127 11.7822C39.5078 10.9274 40.0452 9.89062 40.7393 8.67188C40.917 8.35026 41.1201 8.12174 41.3486 7.98633C41.5856 7.84245 41.8395 7.77051 42.1104 7.77051C42.2288 7.77051 42.3516 7.78743 42.4785 7.82129C42.6055 7.84668 42.724 7.89323 42.834 7.96094C42.944 8.02018 43.0329 8.10059 43.1006 8.20215C43.1683 8.29525 43.2021 8.40527 43.2021 8.53223C43.2021 8.61686 43.1895 8.69727 43.1641 8.77344C43.1217 8.91732 43.0286 9.10775 42.8848 9.34473C42.7493 9.57324 42.5885 9.83984 42.4023 10.1445C42.2161 10.4408 42.0173 10.7624 41.8057 11.1094C41.6025 11.4564 41.4121 11.8161 41.2344 12.1885C41.0566 12.5609 40.9043 12.9417 40.7773 13.3311C40.6504 13.7119 40.5785 14.0843 40.5615 14.4482C40.5615 14.6006 40.6038 14.7402 40.6885 14.8672C40.7731 14.9941 40.9128 15.0576 41.1074 15.0576C41.6576 15.0576 42.1823 14.9053 42.6816 14.6006C43.181 14.2959 43.6423 13.9193 44.0654 13.4707C44.4886 13.0137 44.8695 12.527 45.208 12.0107C45.555 11.486 45.8428 11.0078 46.0713 10.5762C46.2321 10.2884 46.3717 9.97949 46.4902 9.64941C46.6172 9.31934 46.7526 9.01465 46.8965 8.73535C47.0404 8.45605 47.2054 8.22331 47.3916 8.03711C47.5778 7.85091 47.8105 7.75781 48.0898 7.75781C48.3945 7.75781 48.6357 7.85514 48.8135 8.0498C48.9912 8.24447 49.0801 8.47721 49.0801 8.74805C49.0801 8.90039 49.0208 9.11198 48.9023 9.38281C48.7923 9.64518 48.6484 9.94987 48.4707 10.2969C48.3014 10.6354 48.1152 10.9993 47.9121 11.3887C47.709 11.778 47.5186 12.1758 47.3408 12.582C47.1715 12.9798 47.0277 13.3734 46.9092 13.7627C46.7992 14.1436 46.7441 14.499 46.7441 14.8291C46.7441 15.1338 46.9303 15.2861 47.3027 15.2861C47.5651 15.2861 47.891 15.21 48.2803 15.0576C48.6696 14.9053 49.0758 14.6937 49.499 14.4229C49.9307 14.1436 50.3581 13.8177 50.7812 13.4453C51.2129 13.0729 51.5938 12.6709 51.9238 12.2393L52.0508 13.9658ZM56.6846 9.87793C56.2021 9.87793 55.7197 9.99642 55.2373 10.2334C54.7549 10.4619 54.319 10.7666 53.9297 11.1475C53.5488 11.5283 53.2357 11.96 52.9902 12.4424C52.7448 12.9163 52.6221 13.3988 52.6221 13.8896C52.6221 14.0251 52.6348 14.1647 52.6602 14.3086C52.6855 14.444 52.7363 14.571 52.8125 14.6895C52.8971 14.8079 53.0156 14.9053 53.168 14.9814C53.3203 15.0576 53.5234 15.0957 53.7773 15.0957C54.2682 15.0957 54.7422 14.9814 55.1992 14.7529C55.6647 14.516 56.0794 14.207 56.4434 13.8262C56.8073 13.4453 57.0993 13.0179 57.3193 12.5439C57.5394 12.0615 57.6494 11.5791 57.6494 11.0967C57.6494 10.9697 57.6367 10.8343 57.6113 10.6904C57.5944 10.5465 57.5521 10.4154 57.4844 10.2969C57.4167 10.1784 57.3193 10.0811 57.1924 10.0049C57.0654 9.92025 56.8962 9.87793 56.6846 9.87793ZM57.751 14.9941C57.0316 15.8574 56.2656 16.4922 55.4531 16.8984C54.6491 17.2962 53.7773 17.4951 52.8379 17.4951C52.3216 17.4951 51.8857 17.4189 51.5303 17.2666C51.1748 17.1227 50.887 16.9238 50.667 16.6699C50.4469 16.416 50.2861 16.1198 50.1846 15.7812C50.0915 15.4427 50.0449 15.083 50.0449 14.7021C50.0449 14.2705 50.0999 13.8262 50.21 13.3691C50.32 12.9036 50.4639 12.4551 50.6416 12.0234C50.7601 11.7441 50.8574 11.5114 50.9336 11.3252C51.0098 11.139 51.0732 10.9824 51.124 10.8555C51.1748 10.7201 51.2171 10.6058 51.251 10.5127C51.2933 10.4111 51.3356 10.3096 51.3779 10.208C51.4202 10.098 51.471 9.97526 51.5303 9.83984C51.5895 9.69596 51.6699 9.514 51.7715 9.29395L55.4785 1.05469C55.5293 0.944661 55.6012 0.838867 55.6943 0.737305C55.7959 0.635742 55.9102 0.546875 56.0371 0.470703C56.1641 0.386068 56.2995 0.322591 56.4434 0.280273C56.5957 0.229492 56.748 0.204102 56.9004 0.204102C57.2897 0.204102 57.5605 0.280273 57.7129 0.432617C57.8737 0.584961 57.9541 0.771159 57.9541 0.991211C57.9541 1.16048 57.9118 1.34668 57.8271 1.5498C57.7425 1.74447 57.6494 1.92643 57.5479 2.0957C56.9215 3.29753 56.3291 4.52051 55.7705 5.76465C55.2119 7.00033 54.6195 8.22331 53.9932 9.43359C54.264 9.22201 54.5518 9.01888 54.8564 8.82422C55.1611 8.62109 55.4785 8.44336 55.8086 8.29102C56.1387 8.13021 56.4814 8.00326 56.8369 7.91016C57.1924 7.80859 57.5563 7.75781 57.9287 7.75781C58.1911 7.75781 58.4577 7.80859 58.7285 7.91016C58.9993 8.01172 59.2448 8.15983 59.4648 8.35449C59.6934 8.54915 59.8753 8.79036 60.0107 9.07812C60.1546 9.35742 60.2266 9.68327 60.2266 10.0557C60.2266 10.1403 60.2012 10.3096 60.1504 10.5635C60.0996 10.8174 60.0234 11.1051 59.9219 11.4268C59.8288 11.7399 59.7103 12.0658 59.5664 12.4043C59.431 12.7344 59.2786 13.0264 59.1094 13.2803C59.1686 13.3734 59.2448 13.4326 59.3379 13.458C59.431 13.4749 59.5368 13.4834 59.6553 13.4834C60.0446 13.4834 60.4297 13.4326 60.8105 13.3311C61.1999 13.2295 61.5638 13.1068 61.9023 12.9629C62.2493 12.8105 62.5667 12.654 62.8545 12.4932C63.1423 12.3324 63.3835 12.1927 63.5781 12.0742C63.6797 11.9642 63.7897 11.9092 63.9082 11.9092C64.0521 11.9092 64.1748 11.9727 64.2764 12.0996C64.3864 12.2266 64.4414 12.3916 64.4414 12.5947C64.4414 12.7894 64.3991 12.984 64.3145 13.1787C64.2383 13.3649 64.0944 13.5723 63.8828 13.8008C63.502 14.0293 63.1169 14.2451 62.7275 14.4482C62.3467 14.6514 61.9574 14.8291 61.5596 14.9814C61.1618 15.1253 60.7555 15.2438 60.3408 15.3369C59.9346 15.4215 59.5199 15.4639 59.0967 15.4639C58.8258 15.4639 58.5762 15.4258 58.3477 15.3496C58.1191 15.2734 57.9202 15.1549 57.751 14.9941ZM66.2441 9.59863C66.5742 9.39551 66.9128 9.20931 67.2598 9.04004C67.6152 8.87077 67.958 8.72689 68.2881 8.6084C68.6182 8.48145 68.9313 8.38411 69.2275 8.31641C69.5322 8.24023 69.8031 8.20215 70.04 8.20215C70.4209 8.20215 70.7129 8.29525 70.916 8.48145C71.1276 8.65918 71.2334 8.96387 71.2334 9.39551C71.2334 9.48861 71.2292 9.59017 71.2207 9.7002C71.2122 9.80176 71.1953 9.91178 71.1699 10.0303C71.1276 10.2503 71.0007 10.5085 70.7891 10.8047C70.5775 11.1009 70.3278 11.4098 70.04 11.7314C69.7607 12.0531 69.4561 12.3789 69.126 12.709C68.8044 13.0306 68.5039 13.3311 68.2246 13.6104C67.9538 13.8812 67.7253 14.1182 67.5391 14.3213C67.3613 14.5244 67.2725 14.6641 67.2725 14.7402C67.2725 14.8079 67.2767 14.8545 67.2852 14.8799C67.2936 14.9053 67.3317 14.918 67.3994 14.918C67.8564 14.7233 68.3643 14.4906 68.9229 14.2197C69.4899 13.9404 70.0527 13.6569 70.6113 13.3691C71.1699 13.0814 71.6989 12.8021 72.1982 12.5312C72.6976 12.252 73.1208 12.0107 73.4678 11.8076C73.5439 11.7653 73.6201 11.7314 73.6963 11.7061C73.7809 11.6722 73.8571 11.6553 73.9248 11.6553C74.0771 11.6553 74.2041 11.7061 74.3057 11.8076C74.4072 11.9092 74.458 12.0446 74.458 12.2139C74.458 12.4085 74.3734 12.6328 74.2041 12.8867C74.0433 13.1322 73.7682 13.3903 73.3789 13.6611C73.0827 13.8473 72.7484 14.0589 72.376 14.2959C72.012 14.5244 71.627 14.7656 71.2207 15.0195C70.8229 15.265 70.4167 15.5062 70.002 15.7432C69.5957 15.9801 69.2021 16.1917 68.8213 16.3779C68.4404 16.5641 68.0807 16.7165 67.7422 16.835C67.4121 16.945 67.1243 17 66.8789 17C66.2949 17 65.8548 16.8604 65.5586 16.5811C65.2708 16.3018 65.127 15.9421 65.127 15.502C65.127 15.4342 65.1312 15.3835 65.1396 15.3496C65.1989 14.9772 65.3089 14.6175 65.4697 14.2705C65.6305 13.9235 65.8125 13.5934 66.0156 13.2803C66.2188 12.9671 66.4303 12.6709 66.6504 12.3916C66.8704 12.1038 67.0693 11.8372 67.2471 11.5918C67.4333 11.3379 67.5856 11.1051 67.7041 10.8936C67.8226 10.682 67.8818 10.4873 67.8818 10.3096C67.8818 10.2673 67.8734 10.2249 67.8564 10.1826C67.8395 10.1403 67.8014 10.1191 67.7422 10.1191C67.6406 10.1191 67.4714 10.1572 67.2344 10.2334C67.0059 10.3096 66.7604 10.4111 66.498 10.5381C66.2357 10.665 65.986 10.8132 65.749 10.9824C65.512 11.1432 65.3428 11.3167 65.2412 11.5029C65.1058 11.7399 64.9492 12.0404 64.7715 12.4043C64.5938 12.7682 64.4076 13.1491 64.2129 13.5469C64.0267 13.9447 63.8447 14.3382 63.667 14.7275C63.4893 15.1169 63.3369 15.4512 63.21 15.7305C63.1084 15.9759 62.973 16.196 62.8037 16.3906C62.6429 16.5853 62.4652 16.7503 62.2705 16.8857C62.0758 17.0212 61.877 17.127 61.6738 17.2031C61.4707 17.2793 61.2845 17.3174 61.1152 17.3174C60.9206 17.3174 60.764 17.2666 60.6455 17.165C60.5355 17.0635 60.4805 16.8984 60.4805 16.6699C60.4805 16.5768 60.4932 16.4626 60.5186 16.3271C60.5524 16.1833 60.6159 16.0267 60.709 15.8574C60.8613 15.5697 61.0137 15.2565 61.166 14.918C61.3268 14.5794 61.5088 14.1943 61.7119 13.7627C61.915 13.3226 62.1478 12.8232 62.4102 12.2646C62.681 11.6976 62.9984 11.0459 63.3623 10.3096C63.2438 10.208 63.1423 10.0853 63.0576 9.94141C62.9814 9.78906 62.9434 9.60286 62.9434 9.38281C62.9434 9.17969 62.9857 9.00618 63.0703 8.8623C63.1549 8.70996 63.2692 8.58724 63.4131 8.49414C63.557 8.40104 63.722 8.33333 63.9082 8.29102C64.1029 8.24023 64.306 8.21484 64.5176 8.21484C64.7376 8.21484 64.9577 8.236 65.1777 8.27832C65.3978 8.31217 65.5924 8.36719 65.7617 8.44336C65.9395 8.51953 66.0833 8.61263 66.1934 8.72266C66.3034 8.83268 66.3584 8.95964 66.3584 9.10352C66.3584 9.12891 66.3499 9.16276 66.333 9.20508C66.3161 9.2474 66.2949 9.29395 66.2695 9.34473C66.2526 9.39551 66.2357 9.44206 66.2188 9.48438C66.2018 9.52669 66.1934 9.56055 66.1934 9.58594C66.1934 9.60286 66.1976 9.61133 66.2061 9.61133H66.2188L66.2441 9.59863ZM77.543 10.0684C77.1452 10.0684 76.7601 10.1699 76.3877 10.373C76.0153 10.5762 75.6852 10.8428 75.3975 11.1729C75.1097 11.5029 74.8812 11.8753 74.7119 12.29C74.5426 12.6963 74.458 13.1068 74.458 13.5215C74.458 13.6908 74.4665 13.8685 74.4834 14.0547C74.5088 14.2324 74.5596 14.3975 74.6357 14.5498C74.7119 14.7021 74.8177 14.8291 74.9531 14.9307C75.097 15.0322 75.2874 15.083 75.5244 15.083C75.7106 15.083 75.9264 15.0026 76.1719 14.8418C76.4258 14.6725 76.6839 14.4609 76.9463 14.207C77.2171 13.9447 77.4795 13.6611 77.7334 13.3564C77.9873 13.0433 78.2158 12.7386 78.4189 12.4424C78.6221 12.1462 78.7871 11.8796 78.9141 11.6426C79.041 11.4056 79.1045 11.2321 79.1045 11.1221C79.1045 10.9613 79.0495 10.8174 78.9395 10.6904C78.8294 10.555 78.694 10.4408 78.5332 10.3477C78.3724 10.2546 78.1989 10.1868 78.0127 10.1445C77.835 10.0938 77.6784 10.0684 77.543 10.0684ZM86.3408 13.3438C86.1885 13.4876 85.9854 13.6865 85.7314 13.9404C85.4775 14.1943 85.1855 14.4694 84.8555 14.7656C84.5339 15.0618 84.1868 15.3623 83.8145 15.667C83.4505 15.9632 83.0739 16.234 82.6846 16.4795C82.3037 16.7249 81.9271 16.9238 81.5547 17.0762C81.1823 17.237 80.8311 17.3174 80.501 17.3174C80.2048 17.3174 79.9508 17.2539 79.7393 17.127C79.5277 17 79.3499 16.835 79.2061 16.6318C79.0706 16.4287 78.9691 16.2002 78.9014 15.9463C78.8337 15.6839 78.7998 15.4173 78.7998 15.1465C78.7998 14.9688 78.8125 14.7952 78.8379 14.626C78.8633 14.4482 78.9056 14.2832 78.9648 14.1309C78.7025 14.4863 78.402 14.8545 78.0635 15.2354C77.7334 15.6077 77.3737 15.9505 76.9844 16.2637C76.6035 16.5684 76.2015 16.818 75.7783 17.0127C75.3636 17.2158 74.9404 17.3174 74.5088 17.3174C74.2887 17.3174 74.0306 17.2708 73.7344 17.1777C73.4466 17.0931 73.1715 16.9492 72.9092 16.7461C72.6468 16.543 72.4268 16.2806 72.249 15.959C72.0713 15.6374 71.9824 15.2438 71.9824 14.7783C71.9824 14.4313 72.0332 14.0166 72.1348 13.5342C72.2448 13.0518 72.4056 12.5524 72.6172 12.0361C72.8372 11.5114 73.1123 10.9951 73.4424 10.4873C73.7809 9.97949 74.1787 9.52669 74.6357 9.12891C75.0928 8.72266 75.6133 8.39681 76.1973 8.15137C76.7812 7.89746 77.4329 7.77051 78.1523 7.77051C78.5247 7.77051 78.8506 7.81706 79.1299 7.91016C79.4092 8.00326 79.6462 8.10482 79.8408 8.21484C80.0609 8.35026 80.2555 8.49837 80.4248 8.65918C80.5687 8.58301 80.7168 8.51107 80.8691 8.44336C80.9961 8.38411 81.1273 8.33333 81.2627 8.29102C81.4066 8.24023 81.5293 8.21484 81.6309 8.21484C81.9525 8.21484 82.2148 8.30371 82.418 8.48145C82.6211 8.65918 82.7227 8.85384 82.7227 9.06543C82.7227 9.12467 82.7184 9.17122 82.71 9.20508C82.6676 9.36589 82.5999 9.56901 82.5068 9.81445C82.4222 10.0599 82.3249 10.335 82.2148 10.6396C82.1048 10.9359 81.9906 11.249 81.8721 11.5791C81.762 11.9007 81.6605 12.2181 81.5674 12.5312C81.4743 12.8444 81.3981 13.1406 81.3389 13.4199C81.2796 13.6908 81.25 13.9235 81.25 14.1182C81.25 14.3721 81.2923 14.5837 81.377 14.7529C81.4616 14.9137 81.6055 14.9941 81.8086 14.9941C81.9355 14.9941 82.0837 14.9561 82.2529 14.8799C82.4307 14.7952 82.6211 14.6852 82.8242 14.5498C83.0273 14.4144 83.2347 14.262 83.4463 14.0928C83.6663 13.915 83.8779 13.7373 84.0811 13.5596C84.555 13.1364 85.0586 12.654 85.5918 12.1123C85.7272 12.0023 85.8584 11.9473 85.9854 11.9473C86.1546 11.9473 86.2943 12.0319 86.4043 12.2012C86.5228 12.362 86.582 12.5439 86.582 12.7471C86.582 12.984 86.5016 13.1829 86.3408 13.3438ZM91.7998 15.2354C91.766 15.4977 91.6855 15.7474 91.5586 15.9844C91.4316 16.2214 91.2751 16.4329 91.0889 16.6191C90.9027 16.7969 90.6911 16.9365 90.4541 17.0381C90.2171 17.1481 89.9717 17.2031 89.7178 17.2031C89.3369 17.2031 89.0322 17.0804 88.8037 16.835C88.5752 16.5811 88.4609 16.2721 88.4609 15.9082C88.4609 15.6289 88.5202 15.3623 88.6387 15.1084C88.7572 14.8545 88.9137 14.6302 89.1084 14.4355C89.3115 14.2324 89.54 14.0716 89.7939 13.9531C90.0479 13.8346 90.3102 13.7754 90.5811 13.7754C90.9619 13.7754 91.2624 13.8939 91.4824 14.1309C91.7025 14.3678 91.8125 14.6683 91.8125 15.0322C91.8125 15.0661 91.8125 15.0999 91.8125 15.1338C91.8125 15.1592 91.8083 15.193 91.7998 15.2354ZM97.7793 1.76562C97.3138 2.6543 96.8906 3.4541 96.5098 4.16504C96.1289 4.86751 95.7565 5.55306 95.3926 6.22168C95.0286 6.8903 94.6562 7.58008 94.2754 8.29102C93.8945 8.99349 93.4714 9.78906 93.0059 10.6777C92.8789 10.9232 92.6969 11.1094 92.46 11.2363C92.223 11.3548 92.0029 11.4141 91.7998 11.4141C91.6305 11.4141 91.4909 11.3802 91.3809 11.3125C91.2793 11.2363 91.2285 11.1221 91.2285 10.9697C91.2285 10.8682 91.2497 10.7708 91.292 10.6777C91.5459 10.0853 91.7829 9.53939 92.0029 9.04004C92.223 8.53223 92.4303 8.04557 92.625 7.58008C92.8281 7.11458 93.0228 6.66178 93.209 6.22168C93.3952 5.78158 93.5856 5.33301 93.7803 4.87598C93.9834 4.41048 94.195 3.92383 94.415 3.41602C94.6351 2.9082 94.8721 2.35807 95.126 1.76562C95.1937 1.61328 95.2868 1.47786 95.4053 1.35938C95.5322 1.24089 95.6761 1.14355 95.8369 1.06738C95.9977 0.982747 96.167 0.923503 96.3447 0.889648C96.5225 0.847331 96.7002 0.826172 96.8779 0.826172C97.1488 0.826172 97.3773 0.876953 97.5635 0.978516C97.7581 1.08008 97.8555 1.24089 97.8555 1.46094C97.8555 1.55404 97.8301 1.6556 97.7793 1.76562Z" fill="#30AF5B"/>
</svg>
